<svg id="Capa_1" data-name="Capa 1" xmlns="http://www.w3.org/2000/svg" viewBox="0 0 400 300"><defs><style>.cls-1{fill:#6e6e6e}</style></defs><path class="cls-1" d="M216 128.38a43.29 43.29 0 0 0-38.25 23 43.33 43.33 0 0 0-58.6-17.92 44.45 44.45 0 0 0-5.62 3.57v-36.47a8.66 8.66 0 0 0-17.32 0v71.83a43.29 43.29 0 0 0 81.5 19.61A43.34 43.34 0 1 0 216 128.36Zm-76.5 69.27a26 26 0 1 1 26-26 26 26 0 0 1-26.04 26Zm76.5 0a26 26 0 1 1 26-26 26 26 0 0 1-26 26Z"/><path class="cls-1" d="m317.51 201.35-22.18-29.64 22.18-29.65a8.66 8.66 0 1 0-13.85-10.41l-19.13 25.61-19.14-25.61a8.68 8.68 0 0 0-13.88 10.41l22.17 29.64-22.17 29.65a8.66 8.66 0 1 0 13.85 10.4l19.14-25.6 19.14 25.6a8.66 8.66 0 0 0 13.84-10.4Z"/></svg>