<svg data-name="Capa 1" xmlns="http://www.w3.org/2000/svg" viewBox="0 0 400 300"><path d="M362.74 152.23a12.28 12.28 0 0 1 12.68 4.77l-21.94 5a12 12 0 0 1 9.26-9.77Zm12.8 18.26a12.08 12.08 0 0 1-7.33 4.94 12.26 12.26 0 0 1-12.73-4.81l22-5 3.58-.78 6.86-1.55a20.7 20.7 0 0 0-.58-4.37 22.47 22.47 0 0 0-26.92-16.5 22 22 0 0 0-16.89 26.13l.06.29a22.59 22.59 0 0 0 42.41 4.09Zm-51.79 14.18v-31.39H317v-10.7h6.77v-14.69h11.51v14.72h8.64v10.7h-8.64v31.39Zm-22 0h11.11v-42.09h-11.09Zm-1.45-56.86a6.81 6.81 0 0 1 6.79-6.82h.26a6.74 6.74 0 0 1 7 6.46v.36a6.79 6.79 0 0 1-6.68 6.91h-.31a6.88 6.88 0 0 1-7.05-6.7v-.21Zm-2.4 14.89c-5.68.29-9 1.16-12.43 3.63v-3.75h-11.12v42.09h11.11V164c0-6.49 1.56-10.18 12.43-10.55V142.7ZM236 164.29a11.79 11.79 0 1 0 0-1Zm-10.84 20.38v-62.15l11.11-2.5v25.72a18.54 18.54 0 0 1 11.93-3.88c12.65 0 22.77 9.74 22.77 22s-10.1 22-22.77 22a18.55 18.55 0 0 1-11.95-3.86v2.74h-11.11Zm-23.66 0v-31.61h-6.8v-10.48h6.78v-14.76l11.51-2.6v17.34h8.65V153H213v31.61Zm-20.36 0v-22.49c0-8.14-4.43-9.91-8.86-9.91s-8.84 1.68-8.84 9.74v22.66h-11.13v-42.09h11.11v3.11a17.15 17.15 0 0 1 11.29-3.88c9.4 0 17.54 5.43 17.54 18.59v24.26Zm-57-32.44a12.27 12.27 0 0 1 12.69 4.77l-22 5a12 12 0 0 1 9.32-9.77Zm12.79 18.26a12 12 0 0 1-7.33 4.94 12.23 12.23 0 0 1-12.72-4.81l22-5 3.59-.78 6.85-1.55a21.45 21.45 0 0 0-.57-4.37 22.48 22.48 0 0 0-26.93-16.5 22 22 0 0 0-16.89 26.13l.06.29a22.6 22.6 0 0 0 42.37 4.07Zm-58.11 14.18-17.25-42.09h12.1l10.94 28.55 11-28.55h12.11l-17.24 42.09Zm-39-32.45A12.25 12.25 0 0 1 52.45 157l-21.94 5a12 12 0 0 1 9.27-9.78Zm12.79 18.26a12.08 12.08 0 0 1-7.33 4.94 12.25 12.25 0 0 1-12.73-4.8l22-5 3.58-.78 6.87-1.53a22.25 22.25 0 0 0-.56-4.37 22.49 22.49 0 0 0-26.94-16.5 22 22 0 0 0-16.88 26.15l.06.27a22.62 22.62 0 0 0 42.37 4l-10.48-2.36Z" style="fill:#6e6e6e"/></svg>